<svg xmlns="http://www.w3.org/2000/svg" viewBox="0 0 98 24"><path fill="#B8BCCC" d="M88.42 20.3a1.84 1.84 0 0 0-1.84 1.85c0 1.02.82 1.85 1.84 1.85a1.84 1.84 0 0 0 1.84-1.85c0-1.02-.82-1.84-1.84-1.84M63.4 15.93a4.43 4.43 0 0 1 5.94-4.16L63.8 17.8a4.39 4.39 0 0 1-.41-1.87zM25 20.36a4.43 4.43 0 0 1-4.43-4.43 4.43 4.43 0 0 1 8.86 0A4.43 4.43 0 0 1 25 20.36zM80.3 1.48h-3.65v11.2l-5.68 6.36a4.4 4.4 0 0 1-3.15 1.32c-.43 0-.85-.07-1.25-.18l8.12-8.86-1.3-1.23a8.06 8.06 0 0 0-5.57-2.23 8.07 8.07 0 0 0-6.1 2.8l-.03-.02-1.32 1.45a6.62 6.62 0 0 0-6.16-4.23 6.65 6.65 0 0 0-4.78 2.05l.3.31-.32-.3-1.97 2.17a6.62 6.62 0 0 0-6.16-4.23 6.56 6.56 0 0 0-4.79 2.05l.31.31-.33-.3-3.65 4.01A8.09 8.09 0 0 0 25 7.86a8.07 8.07 0 0 0-6.16 2.86l-1.07 1.16-5.7 6.25-.82.9a4.4 4.4 0 0 1-3.17 1.33 4.43 4.43 0 0 1-4.43-4.43 4.43 4.43 0 0 1 4.43-4.42 4.46 4.46 0 0 1 4.08 2.67l2.57-2.83a8.13 8.13 0 0 0-6.65-3.49A8.09 8.09 0 0 0 0 15.93a8.09 8.09 0 0 0 13.93 5.57l-.25-.26.27.24 3.23-3.54a8.09 8.09 0 0 0 13.8 3.4v.01l8.2-8.97a2.96 2.96 0 0 1 5.05 2.08v1.14l-7.46 8.17h4.94l10.4-11.39a2.94 2.94 0 0 1 2.1-.87 2.96 2.96 0 0 1 2.96 2.95v1.13l-7.47 8.18h4.94l2.17-2.37L60 17.9a8.09 8.09 0 0 0 13.68 3.59l-.44-.45.47.42 3.2-3.6A8.09 8.09 0 0 0 84.74 24v-3.64a4.43 4.43 0 0 1-4.44-4.43v-4.57h4.44V7.72H80.3V1.48z"/><path fill="#B8BCCC" d="M5.03 5.17a5.34 5.34 0 0 0-2.42 0 5.4 5.4 0 0 0 0-2.41 5.34 5.34 0 0 0 2.42 0 5.4 5.4 0 0 0 0 2.42zm2.1 1.11a3.86 3.86 0 0 1 0-4.63l.27-.36C7.76.8 7.36.24 6.88.24a.64.64 0 0 0-.39.14l-.36.27a3.83 3.83 0 0 1-4.62 0L1.15.38A.64.64 0 0 0 .76.24C.28.24-.11.81.24 1.3l.27.36a3.86 3.86 0 0 1 0 4.63l-.27.36C-.1 7.13.28 7.7.76 7.7a.64.64 0 0 0 .4-.14l.35-.27a3.84 3.84 0 0 1 4.63 0l.35.27a.64.64 0 0 0 .4.14c.47 0 .87-.57.51-1.05l-.27-.35z" mask="url(#b)" transform="translate(90.26)"/></svg>
