<svg xmlns="http://www.w3.org/2000/svg" xmlns:xlink="http://www.w3.org/1999/xlink" viewBox="0 0 74 32"><defs><path id="a" d="M.07.06h13.6v22.58H.07z"/><path id="c" d="M0 0h15.34v22.52H0z"/><path id="e" d="M.05.04H15.4v13.9H.05z"/></defs><path fill="#B8BCCC" d="M38.12 18.67a2.8 2.8 0 0 1-3.12.7c-1.04-.44-1.6-1.38-1.56-2.64v-.17h-.03c.08-.83.08-1.67.25-2.47.35-1.74 2.13-2.8 3.7-2.29.54.18.95.51 1.26.98 1.04 1.55.79 4.55-.5 5.9m-1.77-9.96c-.94.11-1.8.49-2.56 1.03a5.5 5.5 0 0 0-3.42-.77l-1.16 22.23h3.47l.5-9.53.13.03c2.11 1.47 5.5 1.1 7.48-1.15 1.93-2.19 2.36-4.8 1.73-7.58-.7-3.07-3.06-4.64-6.17-4.26"/><g transform="translate(43.27 8.58)"><mask id="b" fill="#fff"><use xmlns:xlink="http://www.w3.org/1999/xlink" xlink:href="#a"/></mask><path fill="#B8BCCC" d="M9.33 9.64A2.67 2.67 0 0 1 6.75 11 2.45 2.45 0 0 1 4.5 9.42a1.96 1.96 0 0 1-.2-.82c.05-1.07.06-2.15.25-3.19a2.94 2.94 0 0 1 2.86-2.3c1.14 0 2 .6 2.4 1.76.58 1.66.41 3.27-.48 4.77M9.12.15a5.8 5.8 0 0 0-4.45 1.02C3.63.45 2.45.4 1.23.35L.07 22.64h3.47l.5-9.55c.37.19.67.38 1 .51 2.4 1 5.4.14 7-2.08a8.3 8.3 0 0 0 1.05-8.02A4.89 4.89 0 0 0 9.12.15" mask="url(#b)"/></g><g><mask id="d" fill="#fff"><use xmlns:xlink="http://www.w3.org/1999/xlink" xlink:href="#c"/></mask><path fill="#B8BCCC" d="M14.41 19.68c-.8.03-1.24-.3-1.36-1.1-.07-.46-.05-.93-.04-1.4 0-1.53.14-3.06.02-4.57a4.02 4.02 0 0 0-2.31-3.47c-2-.95-3.9-.63-5.67.63-.33.24-.62.56-.96.87.13-2.46.2-4.88.39-7.3C4.68 1 2.81.04 1.16.01L0 22.3h3.47c.07-1.22.12-2.4.2-3.58.1-1.36.3-2.7.76-3.98.4-1.1.93-2.1 1.97-2.71 1.44-.86 2.92-.18 3.2 1.47.04.2.06.4.05.6a167.4 167.4 0 0 1-.13 3.16 9.25 9.25 0 0 0 .2 3.23c.65 2.13 3.32 2.51 4.57 1.5.7-.58 1.2-1.7 1.01-2.4l-.89.09" mask="url(#d)"/></g><path fill="#B8BCCC" d="M24.56 14.71a36.65 36.65 0 0 1-.12 2.13 2.93 2.93 0 0 1-2.82 2.75c-1.36.06-2.44-.88-2.75-2.42-.08-.42-.1-.84-.16-1.27.03-.9.19-1.76.6-2.56.7-1.3 1.95-1.92 3.22-1.59 1.26.34 2.07 1.5 2.03 2.96m3.3-5.24a7.36 7.36 0 0 0-3-.54l-.05.77c-.1-.05-.15-.06-.19-.1a5.75 5.75 0 0 0-8.17 1.89 8.6 8.6 0 0 0-1.09 5.93A5.67 5.67 0 0 0 24 21.75c.1-.06.29-.05.4 0 1.02.5 2.1.5 3.22.56l.04-.68.6-11.46c.03-.35-.09-.55-.4-.7"/><g transform="translate(57.77 8.58)"><mask id="f" fill="#fff"><use xmlns:xlink="http://www.w3.org/1999/xlink" xlink:href="#e"/></mask><path fill="#B8BCCC" d="M15.4 11c-.34.04-.65.1-.96.1-.82.03-1.29-.37-1.37-1.2-.05-.4-.03-.82-.02-1.23.03-1.47.15-2.94.07-4.4A4.31 4.31 0 0 0 9.67.17c-2-.4-3.77.13-5.22 1.6-.08.1-.1.23-.16.34L4.17 2c0-.17-.03-.35 0-.51.05-.27-.06-.43-.29-.55A7.57 7.57 0 0 0 .74.33L.04 13.7h3.47l.04-.45c.12-1.63.2-3.27.39-4.9a8.5 8.5 0 0 1 1.2-3.58 3.3 3.3 0 0 1 1.69-1.5c1.21-.42 2.6-.1 2.81 1.64.06.47.05.94.04 1.41-.03 1.48-.14 2.96-.1 4.44.02 1.62.84 2.67 2.2 3.05 1.95.55 3.71-.8 3.62-2.81" mask="url(#f)"/></g></svg>
