<svg xmlns="http://www.w3.org/2000/svg" viewBox="0 0 86 48"><path d="M50.95 0a24 24 0 0 0-24.09 23.92 24 24 0 0 0 24.09 23.92 24 24 0 0 0 24.08-23.92A24 24 0 0 0 50.95 0zM78.3 23.92a3.4 3.4 0 0 1 3.41-3.39c1.88 0 3.41 1.52 3.41 3.39s-1.53 3.39-3.4 3.39a3.4 3.4 0 0 1-3.42-3.39M2 23.13V19.8H0v8.26h2v-3.34h3.19v3.34h2V19.8h-2v3.34zm10.26 0v-1.37h3.6v-1.97h-5.59v8.26h5.59v-1.97h-3.6v-1.37h2.4v-1.58zm9.47 0v-1.37h3.6v-1.97h-5.59v8.26h5.59v-1.97h-3.6v-1.37h2.4v-1.58z" fill="#B8BCCC"/><path fill="#FFF" d="M33 21.75v6.3h-2v-6.3h-2.39V19.8h6.79v1.96zm12.25-.83a4.4 4.4 0 0 0-3.16-1.33 4.36 4.36 0 0 0-4.4 4.33c0 2.4 1.97 4.33 4.4 4.33 1.2 0 2.32-.48 3.14-1.3l-1.43-1.38a2.4 2.4 0 0 1-1.71.71 2.38 2.38 0 0 1-2.4-2.36c0-1.3 1.08-2.36 2.4-2.36a2.4 2.4 0 0 1 1.72.72l1.44-1.36zm4.1 2.21V19.8h-2v8.26h2v-3.34h3.2v3.34h1.99V19.8h-2v3.34z"/></svg>
