<svg xmlns="http://www.w3.org/2000/svg" viewBox="0 0 64 24"><path fill="#B8BCCC" d="M47.97 6.64h4.08v1.95c0 .63-.07 1.17-.07 1.17h.07a6.6 6.6 0 0 1 6.04-3.52c3.77 0 5.91 1.96 5.91 6.44v10.88h-4.2V13.54c0-2.06-.54-3.45-2.71-3.45a4.7 4.7 0 0 0-4.58 3.45c-.23.7-.3 1.46-.3 2.26v7.76h-4.24V6.64zM19.04 0h4.2v17.66c0 1.85.64 2.32 1.74 2.32.34 0 .64-.04.64-.04v3.69s-.64.1-1.34.1c-2.33 0-5.24-.6-5.24-5.44V0zm19.75 12.94h.57v-.23c0-2.22-1.4-2.99-3.27-2.99-2.44 0-4.68 1.63-4.68 1.63l-1.6-3.02s2.64-2.1 6.68-2.1c4.47 0 7.08 2.46 7.08 6.75v10.58h-3.91v-1.4c0-.65.07-1.19.07-1.19h-.07c.03 0-1.3 3-5.18 3-3.04 0-5.77-1.9-5.77-5.29 0-5.37 7.31-5.74 10.08-5.74zm-28.7.04h.56v-.23c0-2.22-1.4-2.99-3.27-2.99-2.44 0-4.67 1.63-4.67 1.63L1.1 8.37s2.63-2.1 6.67-2.1c4.48 0 7.08 2.46 7.08 6.74v10.6h-3.9v-1.4c0-.67.06-1.2.06-1.2h-.07c.04 0-1.3 2.99-5.17 2.99C2.74 24 0 22.1 0 18.72c0-5.37 7.31-5.74 10.09-5.74zm.6 3.25c0 2.06-1.6 4.44-3.84 4.44-1.73 0-2.57-1.06-2.57-2.19 0-2.35 3.51-2.65 5.68-2.65h.74v.4zm24.86 4.44c2.24 0 3.84-2.39 3.84-4.44v-.4h-.73c-2.17 0-5.68.3-5.68 2.65 0 1.13.84 2.2 2.57 2.2z" fill-rule="evenodd"/></svg>
