<svg xmlns="http://www.w3.org/2000/svg" viewBox="0 0 68 32"><defs><path id="a" d="M.1 0h9.81v30.82H.1z"/><path id="c" d="M.07.04h21.7v14.78H.07z"/></defs><g fill="none" fill-rule="evenodd"><path d="M0-12h68v56H0z"/><g transform="translate(30.55 .1)"><mask id="b" fill="#fff"><use xmlns:xlink="http://www.w3.org/1999/xlink" xlink:href="#a"/></mask><path fill="#B8BCCC" d="M.13 6.06C.3 5.01.4 3.94.66 2.9c.18-.7.5-1.38.88-2 .22-.37.66-.6 1-.9h1.17c1.37.43 2.75.84 4.1 1.3.67.21 1.3.5 2.1.82L4.98 4.1 6.1 6.07l.3.99L4.93 19.1l-.12 1.01-1.09 8.53c0 .06.07.14.11.21l-.38 1.96h-.07L3.09 29c-.04-.35-.06-.7-.11-1.04l-1.08-7.82-.13-.97c-.36-2.66-.7-5.33-1.07-7.99C.51 9.8.3 8.43.1 7.05l.03-.99" mask="url(#b)"/></g><path fill="#B8BCCC" d="M0 6.15l5.53.03 1.02.97H1.17v.37c.63 3.65 2.32 6.65 5.44 8.72 4.23 2.83 9.07 3.43 14 3.67l1.15 1.05c-4.22-.11-8.38-.53-12.34-2.1-4.4-1.75-7.5-4.74-8.82-9.38C.4 8.74.28 8 .12 7.25.1 7.16.04 7.08 0 6.99v-.84z"/><path fill="#B8BCCC" d="M25.1 22.46l-.04.03c0 .03.02.05.03.07l.03-.03c0-.03-.02-.05-.03-.07zm.23.15l-.07.04.13.2.07-.04a328.78 328.78 0 0 0-.13-.2zm3.11-1.92l1.83 3.24.14-.06-1.35-3.24-.4-.95c-.1-.3-.2-.6-.32-.9L23.83 7.63c-.07-.16-.2-.43-.31-.43-.94-.03-1.88-.02-2.9-.02l.31.6 4.06 7 2.9 4.97.55.95zm10.48-.05L37.6 23.8l.14.08 1.81-3.2.55-.94.1-.12 7.04-12.18c.04-.06.05-.15.09-.28-.86 0-1.67.02-2.48 0-.37-.02-.56.1-.7.46-1.01 2.55-2.05 5.1-3.08 7.64-.59 1.47-1.16 2.95-1.74 4.42l-.4.96zm-12.1.18l1.65 2.23.12.14.05-.02-.08-.2-1.29-2.21-.54-.94L19.56 7.4c-.06-.1-.2-.22-.31-.22-.86-.02-1.71-.01-2.67-.01l.36.51 3.87 5.17c1.76 2.35 3.53 4.68 5.3 7.02l.72.95zm12.78 2.1l1.56-2.1.69-.9.14-.16 9.15-12.2c.08-.1.13-.23.23-.4-.84 0-1.6.02-2.36 0-.35-.02-.54.11-.7.4-.91 1.6-1.84 3.18-2.76 4.77l-4.29 7.48-.56.96-1.2 2.05-.1.14.2-.04zm-15.82-1.97l-.87-.96-.3-.36c-3.45-3.74-6.93-7.45-10.32-11.23-.82-.92-1.63-1.46-2.88-1.25-.4.07-.8.01-1.34.01l.47.45 7.97 7.22 5.78 5.2 1.06.96 1.54 1.44.16-.16-1.27-1.32zm17.54 1.6l1.48-1.64.88-.93.23-.21L55.13 7.59c.1-.1.18-.23.33-.43-.84 0-1.56.02-2.28 0-.38-.02-.6.12-.83.42-1.55 2.1-3.13 4.17-4.69 6.27l-4.5 6.06-.74.96-1.18 1.57-.04.15.12-.05zm-14.5.14l.09.09-.03-.15-.07-.11-1.25-1.64-.73-.97c-.08-.13-.16-.27-.26-.4-2.8-3.72-5.62-7.42-8.36-11.2-.64-.87-1.29-1.34-2.38-1.16-.4.07-.81.01-1.34.01l.42.5 5.88 6.38 5.51 5.93.86.94 1.56 1.68.1.1zm15.87.05l.12-.1L44.6 21l1.09-.97.44-.38L57.45 9.43c.8-.71 1.58-1.44 2.48-2.26-.95 0-1.76.02-2.56 0a.98.98 0 0 0-.82.35l-6.67 7.25L45.08 20l-.88.96-1.47 1.6-.1.1-.06.1h.13zm-1.62.06l.05-.14-.1.09-.05.1.1-.05zM6.55 7.15l-1.02-.97.42-.02h24.73l-.03 1h-5.94l5.01 12.39.42.96 1.47 3.72 2.01 4.86.32 1.83H34l.38-1.96c.05-.06.12-.13.15-.2l3.31-8.22.37-.96c.04-.07.1-.15.12-.23l4.8-11.85c.04-.08.03-.19.05-.34h-6.23l-.3-.99h25.19l.63.01-.97.97c-.21.17-.43.32-.62.5l-8.16 7.38-5.36 4.89-1.14 1.04-4.03 3.6-8 7.26-.21.17-5.5-4.98-6.35-5.75-.37-.3-1.16-1.04c-1.45-1.34-2.9-2.67-4.37-4L6.55 7.15z"/><g transform="translate(46.15 6.14)"><mask id="d" fill="#fff"><use xmlns:xlink="http://www.w3.org/1999/xlink" xlink:href="#c"/></mask><path fill="#B8BCCC" d="M15.35 1.01l.98-.97h5.44c-.1.68-.17 1.33-.3 1.98-1.13 5.66-4.67 9.15-10 11.02a34.82 34.82 0 0 1-9.18 1.7c-.74.04-1.48.05-2.22.08l1.15-1.04c1-.07 2-.11 3-.22 2.68-.28 5.31-.77 7.82-1.8 4.39-1.78 7.33-4.84 8.37-9.56.08-.37.14-.74.22-1.19h-5.28z" mask="url(#d)"/></g><path fill="#B8BCCC" d="M37.84 20.54l-2.48-.32.12-1 2.73.36-.37.96m-5.4-.31l-2.3.28-.42-.96 2.59-.29.13.97m7.1.46l-.62-.05.4-.96.77.06-.55.95m-10.48-.06l-.62.06-.54-.95.76-.06.4.95m-6.77-.6l.62-.04.87.96-.43.04-1.06-.96m4.98.73l-.44.06-.72-.95.62-.05.54.94m13.89.06l-.46-.05.56-.96.59.1-.7.91m3.45.18l-.4-.05.88-.96.6.04-1.08.97m-19.04-.12l-.4.03-.86-.94.53-.06.73.97m17.24.03l-.38-.04.73-.96.53.07-.88.93"/></g></svg>
