<svg xmlns="http://www.w3.org/2000/svg" xmlns:xlink="http://www.w3.org/1999/xlink" viewBox="0 0 35.974 31.477">
  <defs>
    <style>
      .cls-1 {
        fill: #fff;
      }

      .cls-2 {
        fill: #00153e;
      }

      .cls-3 {
        fill: url(#linear-gradient);
      }

      .cls-4 {
        fill: url(#linear-gradient-2);
      }

      .cls-5 {
        fill: #7c95a5;
      }

      .cls-6 {
        fill: url(#linear-gradient-3);
      }

      .cls-7 {
        fill: #ef8137;
      }

      .cls-8 {
        fill: #00205f;
      }

      .cls-9 {
        fill: url(#linear-gradient-4);
      }

      .cls-10 {
        fill: #ed145d;
      }

      .cls-11 {
        fill: url(#linear-gradient-5);
      }
    </style>
    <linearGradient id="linear-gradient" x1="0.024" y1="-1.97" x2="1.029" y2="-1.97" gradientUnits="objectBoundingBox">
      <stop offset="0.394" stop-color="#c9c9c7"/>
      <stop offset="0.818" stop-color="#c9c9c7"/>
      <stop offset="0.92" stop-color="#a192ae"/>
    </linearGradient>
    <linearGradient id="linear-gradient-2" x1="0.155" y1="-2.761" x2="1.174" y2="-2.761" gradientUnits="objectBoundingBox">
      <stop offset="0.063" stop-color="#fff" stop-opacity="0"/>
      <stop offset="0.796" stop-color="#fff"/>
      <stop offset="0.925" stop-color="#fff" stop-opacity="0"/>
    </linearGradient>
    <linearGradient id="linear-gradient-3" x1="-0.088" y1="0.418" x2="1.038" y2="0.48" gradientUnits="objectBoundingBox">
      <stop offset="0.577" stop-color="#c9c9c7"/>
      <stop offset="0.92" stop-color="#a192ae"/>
    </linearGradient>
    <linearGradient id="linear-gradient-4" x1="3.873" y1="-6.485" x2="4.648" y2="-5.793" gradientUnits="objectBoundingBox">
      <stop offset="0" stop-color="#895d3f"/>
      <stop offset="1" stop-color="#895d3f" stop-opacity="0"/>
    </linearGradient>
    <linearGradient id="linear-gradient-5" x1="2.31" y1="-7.111" x2="2.722" y2="-6.319" xlink:href="#linear-gradient-4"/>
  </defs>
  <g id="Groupe_2" data-name="Groupe 2" transform="translate(-64.083 -54.378)">
    <g id="Phone_group" transform="translate(64.083 80.524)">
      <path id="Shape_70_" class="cls-1" d="M162.443,276.2l-28.749,1.455c-.087,0-.119-.1-.043-.13l7.589-3.159c.011,0,.022-.011.033-.011L168.034,273c.087,0,.119.087.043.13l-5.613,3.062C162.476,276.192,162.454,276.192,162.443,276.2Z" transform="translate(-133.608 -273)"/>
      <path id="Shape_69_" class="cls-2" d="M180.811,278.218l-23.929,1.216a.091.091,0,0,1-.054-.174l6.417-2.714a.066.066,0,0,1,.043-.011l22.5-1.14a.089.089,0,0,1,.065.163l-4.983,2.638C180.844,278.207,180.833,278.207,180.811,278.218Z" transform="translate(-154.256 -275.134)"/>
      <path id="Shape_68_" class="cls-3" d="M169.908,273.7l-5.613,3.073-28.7,1.455.033.727,28.63-1.455a.248.248,0,0,0,.119-.033l5.559-3.04Z" transform="translate(-135.384 -273.624)"/>
      <path id="Shape_67_" class="cls-4" d="M406.091,274.427l-5.559,3.029-.033-.717,5.548-3.04Z" transform="translate(-371.524 -273.624)"/>
      <ellipse id="Shape_66_" class="cls-5" cx="0.76" cy="0.174" rx="0.76" ry="0.174" transform="matrix(0.999, -0.051, 0.051, 0.999, 30.064, 1.309)"/>
      <path id="Shape_63_" class="cls-6" d="M322.4,303.408s1.238.076,1.455.076a3.134,3.134,0,0,0,.662-.185Z" transform="translate(-301.903 -300.01)"/>
    </g>
    <g id="Man_group_1_" transform="translate(72.981 54.378)">
      <g id="Man_group" transform="translate(0)">
        <path id="Shape_62_" class="cls-7" d="M314.165,69.1a26.106,26.106,0,0,0,5.005.228c1.3-.3,2.041.033,4.136.358s2.443.771,4.375.695c1.846-.065,2.139.467,2.4.793.293.358-3.094-.282-4.56-.119-1.346.152-5.5.315-7.426.413a34.4,34.4,0,0,1-4-.206Z" transform="translate(-303.401 -65.091)"/>
        <path id="Shape_61_" class="cls-8" d="M251.029,166.671l-.749.565s-.185-.445-.217-.532a.382.382,0,0,1,0-.3,2.73,2.73,0,0,1,.445.076A5.391,5.391,0,0,1,251.029,166.671Z" transform="translate(-246.29 -151.827)"/>
        <path id="Shape_60_" class="cls-7" d="M220.862,165.1s-5.114,3.67-5.3,4.831,5.418,5.689,5.635,6.406a3.066,3.066,0,0,1-.391,1.194c-.3.63-.76.934-.586.966.206.043.706-.185,1.259-.717l.282-.282c.337-.38,1.531-.717,1.259-1.368-.1-.217-1.031-.76-1.194-1.086a23.66,23.66,0,0,0-2.226-4c-.608-.738-.966-.651-.641-.858.586-.391,5.255-2.454,5.255-2.454Z" transform="translate(-215.559 -150.668)"/>
        <path id="Shape_59_" class="cls-2" d="M260.9,142.874a14.933,14.933,0,0,1-.651,3.322c-.5,1.031-.988,2.421-.988,2.421l-2.769.391s-1.531-.554-1.661-1.031c-.1-.358.51-1.173.51-1.173l-1.162.749a4.351,4.351,0,0,0-1.65-2.551,3.522,3.522,0,0,0-1.835-.825c.554-.326,2.323-1.086,2.323-1.086s.413-1.943,2.931-1.574,3.4,1.379,3.941,1.422A3.684,3.684,0,0,0,260.9,142.874Z" transform="translate(-246.877 -129.604)"/>
        <path id="Shape_58_" class="cls-1" d="M233.753,68.194a10.12,10.12,0,0,0-1.77,1.042c-.695.63-1.683,1.661-1.683,1.661l2.66,2.345a4.4,4.4,0,0,0,.315-.38,2.681,2.681,0,0,1,.467-.478,8.459,8.459,0,0,1,1.357,2.193c.521,1.107-.814,1.455-.3,1.563s-.434.434.206.543,2.986-1.379,3.909-.467.282.988,1.8.5,2.237.89,2.182-.293-.956.109-1.4-2.649a20.491,20.491,0,0,0-.565-2.888l.239.033s.1-1.3.054-2.215a13.154,13.154,0,0,1,.033-1.694s-2.725-.043-4.549.043A4.315,4.315,0,0,0,233.753,68.194Z" transform="translate(-228.7 -63.219)"/>
        <path id="Shape_57_" class="cls-7" d="M226.06,110.7s-1.183,2.356-1.5,3.192c-.228.586-.022.738.608,1.162a7.609,7.609,0,0,0,3.007.9,4.74,4.74,0,0,1,1.042.206c.119.043.228-.054.3.033.174.2.391.641.489.771.163.228.293.478.51.445.174-.022.337,0,.456-.1a1.307,1.307,0,0,1,.423-.185c.119-.054.174-.185.3-.239.152-.065.174-.109.174-.3a.791.791,0,0,0-.413-.619,3.247,3.247,0,0,0-.879-.575,11.81,11.81,0,0,1-3.181-1.292c-.489-.347-1.075-.391-.869-.641a13.365,13.365,0,0,0,.934-1.509Z" transform="translate(-223.504 -102.174)"/>
        <path id="Shape_56_" class="cls-7" d="M301.928,187.86a2.734,2.734,0,0,0-.814,1.987c.119,1.086.869,1.911,2.215,4.093,1.422,2.3,1.672,3.018,1.716,4s-.065,1.216.467.771.543-1.335.152-4.3-1.672-3.963-1.629-5.439S302.6,187.947,301.928,187.86Z" transform="translate(-291.815 -170.953)"/>
        <path id="Shape_55_" class="cls-7" d="M260.706,42.313a1.449,1.449,0,0,0-1.031.825,2.647,2.647,0,0,0,.1,1.053,3.011,3.011,0,0,0,1.574,2.378c.923.5,1.3-.011,1.78-.847.434-.76.25-3.246-.38-3.453A2.619,2.619,0,0,0,260.706,42.313Z" transform="translate(-254.86 -41.007)"/>
        <path id="Shape_54_" class="cls-9" d="M259.78,51.476a1.46,1.46,0,0,0-.2.879c.087.4-.022.5-.022.5s-.1-.554-.119-.912-.043-.543-.043-.543Z" transform="translate(-254.64 -49.313)"/>
        <path id="Shape_53_" class="cls-10" d="M250.94,32.579a1.709,1.709,0,0,0-1.487-.261c-1.8.347-1.889.434-2.421-.043-.467-.423-.738.6.065,1.086.434.261.033.782.326,1.075s.456.76,1.781.065a3.977,3.977,0,0,0,1.042-.673A3.314,3.314,0,0,1,250.94,32.579Z" transform="translate(-243.216 -32.174)"/>
        <path id="Shape_52_" class="cls-10" d="M281.084,35.9a3.149,3.149,0,0,0-.684,1.249c.3-.3.586-.543.945-.282a.784.784,0,0,1,.282.4A4.76,4.76,0,0,0,281.084,35.9Z" transform="translate(-273.36 -35.495)"/>
        <path id="Shape_51_" class="cls-11" d="M286.1,43.79s.184.076.412.489a3.664,3.664,0,0,1,.326.825,3.257,3.257,0,0,0-.108-.76C286.523,43.735,286.1,43.79,286.1,43.79Z" transform="translate(-278.441 -42.528)"/>
        <path id="Shape_50_" class="cls-7" d="M252.121,276.73s-.662.945-1.422.966a2.651,2.651,0,0,1-.749,0c-.087-.054.152-.326.347-.326s.119.141.358,0a7.679,7.679,0,0,0,.945-1.27Z" transform="translate(-246.199 -249.617)"/>
        <path id="Shape_49_" class="cls-7" d="M426.8,85.823c.3.141.847.413,1.292.586s1.01.011,1.27.109.4.065.239-.109c-.184-.2-.825-.337-.706-.489S426.8,85.823,426.8,85.823Z" transform="translate(-403.866 -79.99)"/>
        <path id="Shape_48_" class="cls-7" d="M446.1,84.087a1.5,1.5,0,0,0,.651.456,1.883,1.883,0,0,1,.836.3c.25.2.3.337.467.337s.065-.076.043-.206.119-.043-.1-.337A5.245,5.245,0,0,0,446.393,84Z" transform="translate(-421.07 -78.373)"/>
        <path id="Shape_47_" class="cls-7" d="M332.956,297.6c-.043.13-.25.369-.261.521a.218.218,0,0,0,.293.217.973.973,0,0,1,.358-.1,1.106,1.106,0,0,0,.413-.13c.217-.087.369-.076.369-.185A5.266,5.266,0,0,0,332.956,297.6Z" transform="translate(-319.977 -268.783)"/>
        <path id="Shape_46_" class="cls-7" d="M334.424,271.173c0,.065-.033,1.205-.087,1.737-.076.673-.478,1.042-.033,1.14a.948.948,0,0,0,.814-.065c.4-.163.706-.369.6-1.183s-.51-2.3-.51-2.3Z" transform="translate(-321.228 -244.625)"/>
      </g>
    </g>
  </g>
</svg>
