<svg xmlns="http://www.w3.org/2000/svg" viewBox="0 0 34.404 35.33">
  <defs>
    <style>
      .cls-1, .cls-8 {
        fill: #00153e;
      }

      .cls-1 {
        opacity: 0.65;
      }

      .cls-2 {
        fill: #ef8137;
      }

      .cls-3 {
        fill: #c9beb8;
      }

      .cls-4 {
        fill: #00205f;
      }

      .cls-5 {
        fill: #b7b7b6;
      }

      .cls-6 {
        fill: #d3d3d1;
      }

      .cls-7 {
        fill: #e8e8e6;
      }

      .cls-9 {
        fill: #4a31db;
      }

      .cls-10 {
        fill: #ed145d;
      }

      .cls-11 {
        fill: #b5a6a0;
      }

      .cls-12 {
        fill: #b26632;
      }
    </style>
  </defs>
  <g id="Groupe_1" data-name="Groupe 1" transform="translate(-126.954 -49.816)">
    <path id="Shadow" class="cls-1" d="M361.5,419.456c.074,2.835-7.657.755-17.156.755s-17.248,1.9-17.248-.755c0-1.307,7.676-3.056,17.193-3.056S361.467,418.13,361.5,419.456Z" transform="translate(-200.146 -335.801)"/>
    <g id="Group_75_" transform="translate(128.075 49.816)">
      <path id="Shape_149_" class="cls-2" d="M357.794,352.1s-15.921,3.258-16.124,5.89c-.4,5.173,17.78-.11,18.3-.11s-.11-1.141-.11-1.141Z" transform="translate(-340.104 -333.153)"/>
      <path id="Shape_148_" class="cls-2" d="M413.418,350s11.173,2.687,13.437,5.172c2.282,2.485,1.969,5.173-2.374,4.142a111.353,111.353,0,0,1-11.78-4.031Z" transform="translate(-398.066 -331.439)"/>
      <path id="Shape_147_" class="cls-2" d="M411.4,281.5l.166,1.988,1.031-.276-.46-1.638Z" transform="translate(-397.005 -275.548)"/>
      <path id="Shape_146_" class="cls-3" d="M386.768,289.547a20.637,20.637,0,0,0-1.657,2.614c-.755,1.454-1.822,2.025-2.19,3.939a10.872,10.872,0,0,1-1.344,3.056,2.958,2.958,0,0,0-.055,2.025,2.23,2.23,0,0,0,1.933,1.1,3.946,3.946,0,0,0,3.276-2.025l.571,1.546,3.387-.35.129-3.516s1.178,3.59,1.657,3.866,1.509.2,1.509-.626-.037-2.19-.111-3.424.589-1.252-.571-2.5a13.387,13.387,0,0,1-2.485-2.964,9.589,9.589,0,0,0-1.859-2.283,6.567,6.567,0,0,0-.976-.607Z" transform="translate(-372.502 -281.994)"/>
      <path id="Shape_145_" class="cls-4" d="M347.955,355s-11.246,2.761-12.884,3.994c-1.657,1.233-2.1,1.859-1.785,2.835.313.957.589,1.657,3,1.786a49.251,49.251,0,0,0,7.546-.755,9.988,9.988,0,0,1,.147-2.871c.5-.626.81-.368.81-.368l4.822-.129s1.141-1.491,1.767-1.27c.626.2,4.657,1.215,4.657,1.215l-1.933,2.485a48.517,48.517,0,0,0,6.7,1.878c1.693.129,3.773-.129,4.362-1.16.939-1.694-1.362-3.682-4.51-5.062a86.694,86.694,0,0,0-9.24-2.559s-1.307.129-1.933.2A4.936,4.936,0,0,1,347.955,355Z" transform="translate(-333.192 -335.519)"/>
      <g id="Group_76_" transform="translate(9.83 14.548)">
        <path id="Shape_144_" class="cls-5" d="M403.4,361.755H388.827l-2.227-4.031V357.3l16.8,3.866Z" transform="translate(-386.6 -351.943)"/>
        <path id="Shape_143_" class="cls-6" d="M403.7,361.784H389.127L386.9,357.9l13.621.018Z" transform="translate(-386.845 -352.433)"/>
        <path id="Shape_142_" class="cls-7" d="M413.486,337.533,399,337.569l.7-9.333,14.725-.037Z" transform="translate(-396.718 -328.2)"/>
      </g>
      <path id="Shape_141_" class="cls-8" d="M478.037,376.5a4.244,4.244,0,0,1,1.749.258c.515.313,1.068.166.626-.166A8.578,8.578,0,0,0,478,376Z" transform="translate(-451.346 -352.653)"/>
      <path id="Shape_140_" class="cls-8" d="M359.944,368.749h0l-.11-.2-.276-.479h0L358.931,367a1.473,1.473,0,0,1-.2,1.068,2.71,2.71,0,0,1-.184.239,16.068,16.068,0,0,1-2.522.423c-.663-.037-2.761-.515-3.663-.129s-.663.313.479.387,2.687.276,3.276.313,2.614-.313,2.89-.313h.718l.239.276h.239Z" transform="translate(-348.383 -345.31)"/>
      <g id="Group_77_" transform="translate(13.179 0.827)">
        <path id="Shape_139_" class="cls-9" d="M422.539,272H422.5c-.055.258-.129.5-.2.736a.439.439,0,0,0,.258.092.409.409,0,0,0,.4-.4A.428.428,0,0,0,422.539,272Z" transform="translate(-419.077 -268.624)"/>
        <path id="Shape_138_" class="cls-2" d="M405.879,253.814a3.016,3.016,0,0,0-1.031,2.761c.35,1.638,1.289,2.761,1.9,2.853.386.055.9-.644,1.27-1.657.074-.239.147-.479.2-.736a6.639,6.639,0,0,0,.166-1.233C408.438,254.5,407.094,253.207,405.879,253.814Z" transform="translate(-404.792 -253.659)"/>
      </g>
      <ellipse id="Shape_137_" class="cls-9" cx="0.405" cy="0.405" rx="0.405" ry="0.405" transform="translate(13.015 4.258)"/>
      <path id="Shape_136_" class="cls-10" d="M393.923,249.375a15.879,15.879,0,0,1-3.331.5,2.174,2.174,0,0,0,.258,1.565c.018.018.939-.184.939-.184s-.755.534-.718.589a3.744,3.744,0,0,0,.663.828,4.462,4.462,0,0,0,1.9.994v-2.172l3.037.166-.129,1.933s2.172-1.344,2.338-1.988c.147-.534-.515-.129-1.528-1.141C396.426,249.6,395.561,248.768,393.923,249.375Z" transform="translate(-379.969 -249.167)"/>
      <path id="Shape_135_" class="cls-11" d="M404.824,309.124a6.038,6.038,0,0,1,.037,1.215,4.211,4.211,0,0,1-.313.865,8.167,8.167,0,0,1-.552.755.807.807,0,0,0-.055.607h.7a3.422,3.422,0,0,1,.368-1.233,2.522,2.522,0,0,0,.276-1.73C405.118,309.2,404.916,308.774,404.824,309.124Z" transform="translate(-390.889 -297.982)"/>
      <path id="Shape_134_" class="cls-11" d="M427.4,307.1c.239.552.552.479.35,1.215-.2.718-.35.626-.166,1.215a11.113,11.113,0,0,1,.258,1.509h1.178s-1.2-1.215-1.123-1.8a4.457,4.457,0,0,0,.074-1.454A1.131,1.131,0,0,0,427.4,307.1Z" transform="translate(-410.06 -296.436)"/>
      <path id="Shape_133_" class="cls-11" d="M408.5,292.239a8.843,8.843,0,0,0,.847,1.1c.092,0,.368-.828.5-.718.147.11.423.5.552.46s.018-.276.018-.276l-.681-.81-.368.939-.865-.773Z" transform="translate(-394.639 -284.115)"/>
      <path id="Shape_132_" class="cls-7" d="M409.134,285.992c0-.055-.534,1.233-.534,1.233l.828.939.4-1.086.773.976v-1.289s-.276-.828-.46-.736c-.037.018.037.534-.221.534S409.171,286.232,409.134,285.992Z" transform="translate(-394.72 -279.212)"/>
      <path id="Shape_131_" class="cls-12" d="M413.745,382.512l.847-.2-1.638-.81-2.154.018,1.62,1.325Z" transform="translate(-396.515 -357.141)"/>
    </g>
  </g>
</svg>
