<svg xmlns="http://www.w3.org/2000/svg" xmlns:xlink="http://www.w3.org/1999/xlink" viewBox="0 0 865.188 801.791">
  <defs>
    <style>
      .cls-1 {
        fill: #e5b9c8;
      }

      .cls-2 {
        fill: #b697ab;
      }

      .cls-3 {
        fill: #00153e;
      }

      .cls-4 {
        fill: #fef9e7;
      }

      .cls-5 {
        fill: url(#linear-gradient);
      }

      .cls-6 {
        fill: url(#linear-gradient-2);
      }

      .cls-7 {
        fill: url(#linear-gradient-3);
      }

      .cls-8 {
        fill: url(#linear-gradient-4);
      }

      .cls-9 {
        fill: url(#linear-gradient-5);
      }

      .cls-10 {
        fill: url(#linear-gradient-6);
      }

      .cls-11 {
        fill: #f7dc6f;
      }

      .cls-12 {
        fill: url(#linear-gradient-7);
      }

      .cls-13 {
        fill: url(#linear-gradient-8);
      }

      .cls-14 {
        fill: url(#linear-gradient-9);
      }

      .cls-15 {
        fill: #00205f;
      }

      .cls-16 {
        fill: url(#linear-gradient-10);
      }

      .cls-17 {
        fill: #ef8137;
      }

      .cls-18 {
        fill: #ed145d;
      }

      .cls-19 {
        fill: url(#linear-gradient-11);
      }

      .cls-20 {
        fill: #d3d6e2;
      }

      .cls-21 {
        fill: url(#linear-gradient-12);
      }

      .cls-22 {
        fill: #fff;
      }

      .cls-23 {
        fill: #dfe1ed;
      }
    </style>
    <linearGradient id="linear-gradient" x1="-0.151" y1="0.637" x2="0.71" y2="0.451" gradientUnits="objectBoundingBox">
      <stop offset="0.114" stop-color="#fcf3cf"/>
      <stop offset="0.268" stop-color="#fcf2c9"/>
      <stop offset="0.47" stop-color="#fbeeb9"/>
      <stop offset="0.698" stop-color="#f9e79e"/>
      <stop offset="0.944" stop-color="#f7de79"/>
      <stop offset="1" stop-color="#f7dc6f"/>
    </linearGradient>
    <linearGradient id="linear-gradient-2" x1="2.702" y1="-2.332" x2="3.061" y2="-3.551" xlink:href="#linear-gradient"/>
    <linearGradient id="linear-gradient-3" x1="-0.133" y1="0.516" x2="0.997" y2="0.493" xlink:href="#linear-gradient"/>
    <linearGradient id="linear-gradient-4" x1="-0.001" y1="0.5" x2="0.999" y2="0.5" xlink:href="#linear-gradient"/>
    <linearGradient id="linear-gradient-5" x1="0.083" y1="0.661" x2="1.08" y2="0.271" gradientUnits="objectBoundingBox">
      <stop offset="0" stop-color="#f7dc6f"/>
      <stop offset="0.056" stop-color="#f7de79"/>
      <stop offset="0.302" stop-color="#f9e79e"/>
      <stop offset="0.53" stop-color="#fbeeb9"/>
      <stop offset="0.732" stop-color="#fcf2c9"/>
      <stop offset="0.886" stop-color="#fcf3cf"/>
    </linearGradient>
    <linearGradient id="linear-gradient-6" x1="1.261" y1="-1.898" x2="0.681" y2="-1.511" xlink:href="#linear-gradient-5"/>
    <linearGradient id="linear-gradient-7" x1="0.246" y1="-0.148" x2="0.624" y2="0.985" xlink:href="#linear-gradient"/>
    <linearGradient id="linear-gradient-8" x1="0.416" y1="0.405" x2="0.506" y2="0.495" xlink:href="#linear-gradient"/>
    <linearGradient id="linear-gradient-9" x1="0.284" y1="0.249" x2="0.803" y2="0.835" xlink:href="#linear-gradient"/>
    <linearGradient id="linear-gradient-10" y1="0.499" x2="1.002" y2="0.499" gradientUnits="objectBoundingBox">
      <stop offset="0" stop-color="#f7dc6f"/>
      <stop offset="0.064" stop-color="#f7df7a"/>
      <stop offset="0.294" stop-color="#f9e79d"/>
      <stop offset="0.302" stop-color="#f9e79e"/>
      <stop offset="0.529" stop-color="#fbeeb9"/>
      <stop offset="0.731" stop-color="#fcf2c9"/>
      <stop offset="0.886" stop-color="#fcf3cf"/>
    </linearGradient>
    <linearGradient id="linear-gradient-11" x1="0.5" y1="0.975" x2="0.5" y2="-0.073" gradientUnits="objectBoundingBox">
      <stop offset="0.114" stop-color="#fcf3cf"/>
      <stop offset="0.268" stop-color="#fcf1c6"/>
      <stop offset="0.518" stop-color="#faebae"/>
      <stop offset="0.831" stop-color="#f8e287"/>
      <stop offset="1" stop-color="#f7dc6f"/>
    </linearGradient>
    <linearGradient id="linear-gradient-12" x1="0.5" y1="0.08" x2="0.5" y2="0.964" xlink:href="#linear-gradient"/>
  </defs>
  <g id="Working_process" data-name="Working process" transform="translate(-2.4 -1.114)">
    <g id="Group_10_" transform="translate(2.4 1.114)">
      <path id="Background_1_" class="cls-1" d="M339.161,34.6c-75.2,43-120.207,153.7-183.86,180.7C34.132,266.6-21.941,278.3,42.8,398.8c51.259,95.7,144.513,111.4,179.047,181.4s-38.264,105.1,88.079,127.4,114.912-70,283.491-73.2,279.64-57.3,206.842-171.9S698.7,353.7,696.292,190C693.524-4.7,458.887-33.8,339.161,34.6Z" transform="translate(-2.4 -1.114)"/>
      <path id="Background" class="cls-2" d="M325.256,83.7c-81.038,58.5-61.8,119.4-195.378,164.4-95.1,32.1-105.953,88.8-39.347,183.4,62.783,89.1,142.71,57.2,170.833,206.9,13.691,73.2,104.227,91.5,194.392,20.7,123.838-97.1,326.124,0,312.309-141.6C754.373,375.8,587.611,417.2,642.376,268.4c33.92-91.9-2.96-180.3-109.16-212.2C473.887,38.4,404.444,26.6,325.256,83.7Z" transform="translate(-2.4 -1.114)"/>
      <g id="Lamp" transform="translate(378.183 177.186)">
        <g id="Lamp_1_">
          <g id="Group_1_">
            <path id="Shape_10_" class="cls-3" d="M405.2,369.6H347.4v36.5c0,3.7,9.5,12.6,22.2,15.1.3,2.5,6.8,4.4,6.8,4.4s6.5-1.9,6.8-4.4c12.7-2.5,22.2-11.4,22.2-15.1V369.6Z" transform="translate(-304.4 -178.3)"/>
            <path id="Shape_9_" class="cls-4" d="M376.5,178.3h-.4a73.782,73.782,0,0,0-71.7,73.8c0,29.4,14.2,45.5,28.5,68.8,7.6,12.5,8,35.9,8,35.9,0,3.5,2.8,8,5.9,10.8h22.8l-22.1-98.9h13.2v1.2l.9-.7,1,1.4,4.5-6,4.5,6,4.5-6,4.5,6,4.5-6,4.5,6,1.1-1.5.9.7v-1.1h13.2l-22.2,98.9h22.9c3.2-2.7,5.9-7.3,5.9-10.8,0,0,.4-23.5,8-35.9,14.3-23.4,28.5-39.5,28.5-68.8C448.2,212.1,416.3,179.5,376.5,178.3Z" transform="translate(-304.4 -178.3)"/>
            <path id="Shape_8_" class="cls-4" d="M392.7,271.6l-2.9,3.8-4.5-6.1-4.5,6.1-4.5-6.1-4.5,6.1-4.6-6.1-4.5,6.1-2.8-3.8h-8.8l21.5,96.1H380l21.6-96.1Z" transform="translate(-304.4 -178.3)"/>
          </g>
          <g id="Group" transform="translate(39.893 194.4)">
            <g id="Groupe_37" data-name="Groupe 37">
              <path id="Shape_154_" class="cls-3" d="M346.4,376.9h59.9a2.1,2.1,0,0,0,0-4.2H346.4a2.112,2.112,0,0,0-2.1,2.1A1.994,1.994,0,0,0,346.4,376.9Z" transform="translate(-344.293 -372.7)"/>
              <path id="Shape_153_" class="cls-3" d="M406.3,378.4H346.4a2.112,2.112,0,0,0-2.1,2.1,2.182,2.182,0,0,0,2.1,2.1h59.9a2.1,2.1,0,0,0,0-4.2Z" transform="translate(-344.293 -372.7)"/>
              <path id="Shape_152_" class="cls-3" d="M406.3,384.2H346.4a2.1,2.1,0,1,0,0,4.2h59.9a2.1,2.1,0,0,0,0-4.2Z" transform="translate(-344.293 -372.7)"/>
              <path id="Shape_151_" class="cls-3" d="M406.3,390H346.4a2.112,2.112,0,0,0-2.1,2.1,2.182,2.182,0,0,0,2.1,2.1h59.9a2.1,2.1,0,0,0,0-4.2Z" transform="translate(-344.293 -372.7)"/>
              <path id="Shape_150_" class="cls-3" d="M406.3,395.8H346.4a2.112,2.112,0,0,0-2.1,2.1,2.182,2.182,0,0,0,2.1,2.1h59.9a2.1,2.1,0,0,0,0-4.2Z" transform="translate(-344.293 -372.7)"/>
              <path id="Shape_149_" class="cls-3" d="M406.3,401.6H346.4a2.112,2.112,0,0,0-2.1,2.1,2.182,2.182,0,0,0,2.1,2.1h59.9a2.1,2.1,0,0,0,0-4.2Z" transform="translate(-344.293 -372.7)"/>
            </g>
          </g>
        </g>
      </g>
      <g id="Ficus" transform="translate(0 173.186)">
        <g id="Group_6_">
          <g id="Group_7_">
            <path id="Shape_23_" class="cls-5" d="M67.3,318.5s-.8-47.9,7.5-66.1,14.1-19.7,14.1-19.7l.8,10.7,6.5-16.2s6.2-8.3,11.8-11.7,9.2-7.6,9.4-4.7,4.5,35.4-7.3,61.7C96.5,302.8,67.3,318.5,67.3,318.5Z" transform="translate(-2.4 -174.3)"/>
            <path id="Shape_22_" class="cls-6" d="M53.3,174.3s-5.9,12.2-5.2,20.5S53.3,211,53.3,211,59,196.9,58,190.1,55.3,174.7,53.3,174.3Z" transform="translate(-2.4 -174.3)"/>
            <path id="Shape_21_" class="cls-7" d="M37.4,195.6S58.5,220.8,60,258.9c1.5,38,.3,34.7.3,34.7s-26.5-31.7-27.3-36l-.8-4.3,6.4.5-8.8-5.7a43.155,43.155,0,0,1-2.3-10.6,66.894,66.894,0,0,1,.5-12.8l6.5,1.9-6.9-7.3C27.6,219.4,33.9,200.3,37.4,195.6Z" transform="translate(-2.4 -174.3)"/>
            <path id="Shape_20_" class="cls-8" d="M62.4,311.2S46,251.9,56.1,223s22-43.5,24.7-42.4,10.9,22,10.9,22L86,214.1l7.3-7.1s3,12.8,3.3,17.3a20.493,20.493,0,0,1-1.3,8.6L87,243.4l10.1-4.7s1.7,12.9-6,31.1S62.4,311.2,62.4,311.2Z" transform="translate(-2.4 -174.3)"/>
            <path id="Shape_19_" class="cls-9" d="M2.4,266.4s.4,5.3,1.4,14.8S6.3,294,6.3,294l7.3-.6-6.5,4.2s6.2,11,9.4,13.2a21.436,21.436,0,0,0,4.9,2.8l7.9-2.1-5.8,3.9s12.1,7.6,22.7,9,14.1,2.1,14.1,2.1-12-28.4-19.1-36.9S15.2,266.8,2.4,266.4Z" transform="translate(-2.4 -174.3)"/>
            <path id="Shape_18_" class="cls-10" d="M58.8,319.3s1-20.9-1.5-27.3-4.1-10.8-4.1-10.8l-5.3,7.3L50,277.9s-7-9.9-12.7-11.7-14.5-6-15.4-5.3-1.2,17.8,3.2,28.1C31,302.9,58.8,319.3,58.8,319.3Z" transform="translate(-2.4 -174.3)"/>
          </g>
          <path id="Shape_17_" class="cls-11" d="M78.8,335.9a31.06,31.06,0,0,0-4.3-16H40.1a31.06,31.06,0,0,0-4.3,16c0,9.8,4.3,18.4,10.7,23.1a1.087,1.087,0,0,0-.1.5v2.1a1.9,1.9,0,0,0,1.9,1.9H66.4a1.9,1.9,0,0,0,1.9-1.9v-2.1a1.268,1.268,0,0,0-.1-.6C74.5,354.3,78.8,345.7,78.8,335.9Z" transform="translate(-2.4 -174.3)"/>
        </g>
        <path id="Shape_16_" class="cls-11" d="M56.3,318.9S62,301.5,66.9,302c4.9.6,14.9,3.7,20.3,3.7s-3.7,10-12,11.4A176.376,176.376,0,0,1,56.3,318.9Z" transform="translate(-2.4 -174.3)"/>
        <path id="Shape_15_" class="cls-12" d="M66.2,302.1s6.1-2.3,6.1,11.1-1.1,18.6-1.1,18.6l8.6-2.3-8.3,6.3a76.7,76.7,0,0,0,12.3,14.9c8.3,8,26.3,9.1,28.7,7.1,1.8-1.5-9.5-17.7-11.1-26.7-2.1-12.1,1.3-13.6-3.9-18.4a36.641,36.641,0,0,0-9.4-6.8Z" transform="translate(-2.4 -174.3)"/>
      </g>
      <g id="Group_21_" transform="translate(580.181 209.403)">
        <path id="Shape_121_" class="cls-11" d="M505.5,281.5l-24.9-25.3a3.2,3.2,0,0,1,0-4.6l33.5-33a3.2,3.2,0,0,1,4.6,0l24.9,25.3c1.3,1.3.8,2.9-.5,4.1l-33.5,33C507.9,282.8,506.7,282.8,505.5,281.5Z" transform="translate(-476.906 -210.517)"/>
        <path id="Shape_118_" class="cls-13" d="M521.5,212.5l-1.4-1.4a2.751,2.751,0,0,0-3.6.2l-4.6,4.5-29.8,29.4-4.2,4.2c-.9.9-1.6,2.2-.2,3.7,1,1,2,2.1,2,2.1.9.9,1,.9,2-.1l5.1-5.1,29.8-29.4,4.9-4.8A2.353,2.353,0,0,0,521.5,212.5Z" transform="translate(-476.906 -210.517)"/>
        <path id="Shape_1_" class="cls-4" d="M519.7,216l-35.5,35-1.2-1.3a2.717,2.717,0,0,0-3.9,0c-1.9,1.9-1.1,2.8,0,3.9l2.8,2.8h0l25.6,25.9a5.758,5.758,0,0,1,1.5-2.4,5.677,5.677,0,0,1,2.6-1.7l35.2-34.7Z" transform="translate(-476.906 -210.517)"/>
        <path id="Shape_119_" class="cls-14" d="M509.5,276.8,485,252c-1.4-1.4-2.5-2.6-2.5-2.6l2.8-2.8L518,214.4c2.6-2.6,3.2-1.9,5.1,0l24.5,24.8a3.621,3.621,0,0,1,0,5.1l-33,32.5A3.621,3.621,0,0,1,509.5,276.8Z" transform="translate(-476.906 -210.517)"/>
      </g>
      <g id="Group_26_" transform="translate(519.696 94.786)">
        <path id="Shape_55_" class="cls-15" d="M498.8,156.3a16.607,16.607,0,0,0-1.4-1.3,11.984,11.984,0,0,0-6.5-2.7h-1.2a11.329,11.329,0,0,1-7.2-3.4,14.6,14.6,0,0,1-3.5-7.4,76.274,76.274,0,0,1-.1-10.7,33.187,33.187,0,0,0-8.3-25.7c-10.7-12.1-27.4-12.4-37.1-.1-9.8,12.5-9,32.9,1.8,44.9a23.783,23.783,0,0,0,24.9,6.8c1.1-.2,2.3-.2,3.6-.3a11.2,11.2,0,0,1,10.1,3.3,13.775,13.775,0,0,1,3.6,8c0,.4.1.9.1,1.3v.2a15.892,15.892,0,0,0,1.7,5.2,14.812,14.812,0,0,0,2.5,3.5,11.773,11.773,0,0,0,18.2-1A16.053,16.053,0,0,0,498.8,156.3Z" transform="translate(-426.644 -95.899)"/>
        <path id="Shape_276_" class="cls-3" d="M436.7,150.6a23.783,23.783,0,0,0,24.9,6.8c1.1-.2,2.3-.2,3.6-.3a11.2,11.2,0,0,1,10.1,3.3,13.775,13.775,0,0,1,3.6,8c0,.4.1.9.1,1.3v.2a15.892,15.892,0,0,0,1.7,5.2,14.812,14.812,0,0,0,2.5,3.5,11.773,11.773,0,0,0,18.2-1,15.8,15.8,0,0,0-1.2-20.5,16.607,16.607,0,0,0-1.4-1.3,11.984,11.984,0,0,0-6.5-2.7h-1.2a11.329,11.329,0,0,1-7.2-3.4,14.6,14.6,0,0,1-3.5-7.4,76.274,76.274,0,0,1-.1-10.7,33.187,33.187,0,0,0-8.3-25.7c-10.7-12.1-27.4-12.4-37.1-.1C425.2,118.2,426,138.5,436.7,150.6Z" transform="translate(-426.644 -95.899)"/>
        <path id="Compound_path" class="cls-4" d="M472.7,126.3l-3.1-.8a14.5,14.5,0,0,0-.6-3l2.4-1.7a1.054,1.054,0,0,0,.3-1.2l-1.1-2.8c-.2-.4-.6-.7-1-.5l-2.9,1c-.5-.8-1.2-1.6-1.8-2.4l1.3-3a.954.954,0,0,0-.3-1.2l-2.1-1.8a.713.713,0,0,0-1.1.1l-2,2.6a11.663,11.663,0,0,0-2.6-1l-.2-3.4a.974.974,0,0,0-.8-1l-2.6-.4c-.4-.1-.8.3-.9.7l-.6,3.6a10.958,10.958,0,0,0-2.6.6l-1.6-3a.758.758,0,0,0-1-.4l-2.3,1.2a.926.926,0,0,0-.4,1.2l1,3.6a12.865,12.865,0,0,0-1.9,2.1l-2.6-1.7a.693.693,0,0,0-1,.3l-1.5,2.5a1.213,1.213,0,0,0,.1,1.3l2.3,2.6c-.3,1-.6,2-.8,3l-2.9.1c-.4,0-.7.4-.8.9l-.2,3.1a1.126,1.126,0,0,0,.7,1.1l3.1.8a15.468,15.468,0,0,0,.6,3.1l-2.4,1.8a1.1,1.1,0,0,0-.3,1.2l1.1,2.8c.2.5.6.7,1,.5l3-1.2a13.015,13.015,0,0,0,1.8,2.3l-1.3,3.1a1.091,1.091,0,0,0,.3,1.3l2.1,1.8a.792.792,0,0,0,1.1-.1l2-2.8a12.537,12.537,0,0,0,2.5.9l.2,3.4a.817.817,0,0,0,.8.9l2.6.3a.948.948,0,0,0,.9-.8l.6-3.6a11.069,11.069,0,0,0,2.6-.7l1.6,2.8a.758.758,0,0,0,1,.4l2.3-1.3a.926.926,0,0,0,.4-1.2l-1-3.5a12.865,12.865,0,0,0,1.9-2.1l2.6,1.6a.693.693,0,0,0,1-.3l1.5-2.4a1.23,1.23,0,0,0-.1-1.3l-2.3-2.4a21.68,21.68,0,0,0,.8-3l2.9-.1c.4,0,.7-.4.8-.9l.2-3A1.077,1.077,0,0,0,472.7,126.3Zm-18.5,15c-6.5-.8-11.4-7.7-10.8-15.5.5-7.8,6.3-13.3,12.8-12.4s11.4,7.9,10.8,15.5S460.7,142.1,454.2,141.3Z" transform="translate(-426.644 -95.899)"/>
        <path id="Compound_path_1_" class="cls-4" d="M500.6,166.8l-2.1-.4a8.333,8.333,0,0,0-.4-1.5l1.4-1.8a.483.483,0,0,0,0-.7l-1-1.3c-.2-.2-.4-.3-.6-.1l-1.8,1.4a5.387,5.387,0,0,0-1.3-.7l-.1-2.5a.458.458,0,0,0-.4-.5l-1.5-.1c-.2,0-.5.2-.5.4l-.4,2.4a5.024,5.024,0,0,0-1.3.5l-1.6-1.6a.375.375,0,0,0-.6,0l-1.1,1.1a.616.616,0,0,0-.1.7l1.2,2a3.506,3.506,0,0,0-.6,1.4l-2.2.2a.457.457,0,0,0-.4.5l-.1,1.7a.548.548,0,0,0,.4.6l2.1.5a8.333,8.333,0,0,0,.4,1.5l-1.4,1.9a.483.483,0,0,0,0,.7l1,1.3a.471.471,0,0,0,.6.1l1.8-1.4a7.457,7.457,0,0,0,1.2.7l.1,2.5a.458.458,0,0,0,.4.5l1.5.1c.2,0,.5-.2.5-.4l.4-2.4a5.024,5.024,0,0,0,1.3-.5l1.6,1.6a.375.375,0,0,0,.6,0l1.1-1.1a.616.616,0,0,0,.1-.7l-1.2-2a3.506,3.506,0,0,0,.6-1.4l2.1-.2a.457.457,0,0,0,.4-.5l.1-1.7C501,167.1,500.8,166.9,500.6,166.8Zm-3.1,1.2c-.2,2.8-2.4,5-4.9,4.8s-4.4-2.7-4.2-5.6,2.4-5,4.9-4.8A5.143,5.143,0,0,1,497.5,168Z" transform="translate(-426.644 -95.899)"/>
      </g>
      <g id="Group_13_" transform="translate(394.008 66.642)">
        <path id="Tracé_131" data-name="Tracé 131" class="cls-11" d="M375.3,110.2l-5.2-27.3c-.3-1.3-.5-2.4-.5-2.4h0c-.2-.1-.9-.5-1.7-1h0L346.4,68a2.589,2.589,0,0,0-3,.6L328.9,85.7c-.6.7-1.1,1.2-1.1,1.2s.2.9.5,2l6.2,22.9a2.761,2.761,0,0,0,2.2,2.1l37.2-1C375,112.8,375.5,111.6,375.3,110.2Z" transform="translate(-326.8 -67.756)"/>
        <path id="Shape_92_" class="cls-16" d="M368.6,81.2s-.8-.5-1.8-1L345.3,68.7a2.589,2.589,0,0,0-3,.6l-14.4,17c-.6.7-1.1,1.2-1.1,1.2s.2.9.5,2l6.2,22.9a2.761,2.761,0,0,0,2.2,2.1l37.2-1c.9-.1,1.5-1.3,1.3-2.6L369,83.6C368.8,82.2,368.6,81.1,368.6,81.2Zm-25.7-9.8a2.442,2.442,0,0,1,2.9-.6l18.1,9.9c1,.6.9,1.2,0,1.4l-32.7,5c-1,.1-1.2-.4-.6-1.1Z" transform="translate(-326.8 -67.756)"/>
        <g id="Group_14_" transform="translate(0 11.193)">
          <path id="Shape_91_" class="cls-11" d="M368.6,81.1l-4.3.9.7,3.8Z" transform="translate(-326.8 -78.949)"/>
          <path id="Shape_90_" class="cls-11" d="M326.8,87.5l4.4,2.5-.8-2.9Z" transform="translate(-326.8 -78.949)"/>
          <path id="Shape_89_" class="cls-4" d="M331.3,84.1c-1,.1-1.6.8-1.4,1.4.2.7.5,1.9.8,2.7.1.4.4,1.5.4,1.5s1.2.7,1.8,1l17,10.7a2.236,2.236,0,0,0,2.9-.2l11.6-14.4c.4-.5,1.2-1.6,1.2-1.6s-.3-1.5-.4-1.9c-.2-1-.5-2.5-.7-3.3a1.671,1.671,0,0,0-2.1-1Z" transform="translate(-326.8 -78.949)"/>
        </g>
      </g>
    </g>
    <g id="Man_2_Group" transform="translate(525.395 328.137)">
      <path id="Shape_47_" class="cls-3" d="M497,432.1c2.9,4.5,3.8,20.8,43.6,23.2,11.8.7,18.9,20.8,18.9,20.8s-42.4,7.4-53.6-2.3C494.5,464.2,497,432.1,497,432.1Z" transform="translate(-389.003 -328.137)"/>
      <path id="Shape_48_" class="cls-3" d="M489.3,543.7c3.7,1.1,112.6-15.5,119-7.5C614.5,544,643,636.5,643,636.5l18.1-5.9s-24.6-123.8-34.2-128.1-116.4.5-128.1,5.9c-11.7,5.3-11.7,35.2-11.7,35.2h2.2Z" transform="translate(-389.003 -328.137)"/>
      <path id="Tracé_132" data-name="Tracé 132" class="cls-11" d="M535.9,572.1c-4.8-4-16-10.5-37.7-10.3l-5.7.1c-18.5.2-43.7.5-61.5-.6-6-.4-7.6-2.2-8.1-2.8-3.2-3.7-2.4-13.9-1.4-26.7.9-11.6,2.1-26,1.1-43.4-1.2-22.5-6.9-37.6-16.8-44.8a23.027,23.027,0,0,0-13.6-4.4,3.3,3.3,0,0,0-3.1,4.1l1.2,4.2a3.317,3.317,0,0,0,2.9,2.4,12.469,12.469,0,0,1,6.4,2.3c5,3.6,11.2,12.9,12.4,36.7.9,16.7-.2,30.7-1.1,42-1.3,16.5-2.2,27.4,4,34.6,3.4,3.9,8.4,6,15.5,6.4a4.486,4.486,0,0,1,1.1.1L414.3,677.2l6.9.4,22-105.1c16.2.5,35.1.2,49.7.1h3.9l22,105.1,6.9-.4-17-104.2c11.2,1.3,17.4,4.8,20.1,6.9a3.153,3.153,0,0,0,3.9,0l3.4-2.6A3.689,3.689,0,0,0,535.9,572.1Z" transform="translate(-389.003 -328.137)"/>
      <path id="Shape_53_" class="cls-17" d="M645.2,635.9s4.3,8.9,3.2,14.2.4,11,5.7,10.7,17.1-5.3,28.1-3.9a175.759,175.759,0,0,0,19.9,1.4s-22.4-11.7-31-15.7c-8.5-3.9-15.7-11-15.7-11" transform="translate(-389.003 -328.137)"/>
      <path id="Shape_54_" class="cls-3" d="M442.4,522.4s-11.7,37.9,39.5,40,88.6-8.4,99.3.2c10.7,8.5,31.4,42.8,39.9,51.2,11,11,39.7,30.2,39.7,30.2l17.6-12.8S620.8,565,609,540.5c-11.7-24.6-111-28.8-111-28.8Z" transform="translate(-389.003 -328.137)"/>
      <path id="Shape_57_" class="cls-3" d="M469,386.8s-20.3,21.4-28.8,38.4-12.8,55.5-18.1,75.8,11.7,38.4,33.1,27.8c21.4-10.7,32.8-16.8,39-14.7,9.8,3.4,26.5,5.5,31.2.5,5.5-5.8,12.4-22.4,18.2-28.6,9.1-9.6-17.2-24.4-26.7-26.3-20.3-4.1-17.7-18.4-18-20.7-2.9-22.7-2.1-39.5-12.8-44.8A145.115,145.115,0,0,0,469,386.8Z" transform="translate(-389.003 -328.137)"/>
      <path id="Shape_58_" class="cls-17" d="M501.7,338.5c-8.2,1.5-20.9,8.2-22.8,24.1s10.8,32.3,16.5,34.9c5.7,2.5,21.6-12.7,26.6-29.2C527.1,351.8,514.8,336,501.7,338.5Z" transform="translate(-389.003 -328.137)"/>
      <path id="Shape_61_" class="cls-17" d="M676.5,632.4s8.2,8.5,12.1,11.7,22.4,11.7,28.5,11.4,9.6,5.3,5.3,7.1-24.6,3.2-35.6,3.2-9.3-7.5-12.8-11.7c-3.6-4.3-11.7-11.2-11.7-11.2Z" transform="translate(-389.003 -328.137)"/>
      <path id="Shape_62_" class="cls-18" d="M647.7,646.1a29.266,29.266,0,0,1,0,5.9c-.3,3.9-.3,4.4,1.7,7.3s2.1,3.9,5.9,3.1c3.7-.8,16.5-6.3,25.8-6,9.2.3,20.3-.3,25.1-2.4s8-7.3,6.4-7.9.3-2.8-3.3-1.5-15.2,2.4-19.6,0-11.5-6.1-13.3-4.5-1.7,5.5-5.1,6.1c-3.3.7-4.4,4.3-11.3,2A39.165,39.165,0,0,0,647.7,646.1Z" transform="translate(-389.003 -328.137)"/>
      <path id="Shape_63_" class="cls-18" d="M671.9,652.1s3.6,6.6,4.4,10.1c.9,3.6-.9,5.2,3.9,5.5,4.8.4,16.2-2,26-.4s21,.7,23.5-1.2,3-8.4-7.7-10.1c-5.2-.9-11.7-1.4-15.5-3.2s-13.9-5.9-13.9-5.9-2-.5-1.8,2.8,3.7,5.2,2,5.3-3.6-.7-9.8-.5A24.429,24.429,0,0,1,671.9,652.1Z" transform="translate(-389.003 -328.137)"/>
      <path id="Shape_59_" class="cls-17" d="M480.5,371.8s-6.7,9.6-10.9,13.6a63.69,63.69,0,0,0-8,9.9s14.9-1.6,18.7.5a61.254,61.254,0,0,0,6.4,3.2s1.9-9.9,2.1-10.7S480.5,371.8,480.5,371.8Z" transform="translate(-389.003 -328.137)"/>
      <path id="Tracé_133" data-name="Tracé 133" class="cls-11" d="M714.2,494.8H537.4v12.8h20.7L545,684.1h4.3l23.1-176.5H676.5l23.2,176.5h4.2L690.8,507.6h23.4Z" transform="translate(-389.003 -328.137)"/>
      <g id="Laptop" transform="translate(179.297 87.763)">
        <g id="Groupe_38" data-name="Groupe 38">
          <path id="Shape_104_" class="cls-11" d="M568.3,494.1v-5.4l77.6-.5,21.3-72.3,5.1,1.5-22.4,76.1Z" transform="translate(-568.3 -415.9)"/>
        </g>
      </g>
      <path id="Shape_64_" class="cls-17" d="M542.2,480c12.6-3.9,14.1-11.7,23.5-5.7,14.5,9.3,28.8,7.9,24.2,12.4-6.5,6.4-23.4-1-31.3,1.8-7.8,2.8-19.2,2.8-19.2,2.8Z" transform="translate(-389.003 -328.137)"/>
      <path id="Shape_65_" class="cls-18" d="M521.9,357.4s-6.4,2.1-10.7,1.1-6.1.8-8.3,5.6c-2.1,4.8-4,.8-4.8,5.6s1.6,8.3-3.6,6.9c-1.6-.4,1.5-7.2,1.7-11.5.3-4.3-4.5-6.4-5.9-2.9s-4,7.7-5.6,9.1c-.6.5-3.2,1.3-4.3.5s-5.9-9.1-.3-18.1c5.6-9.1,5.1-5.9,10.4-14.1,5.3-8.3,10.1-8.5,18.7-8.8s14.4-4.3,15.2-1.9-1.9,4.3,3.5,4,16,1.9,13.1,5.6-7.7,5.9-3.5,7.2c4.3,1.3,21.1-1.3,12,4C540.6,355,530.2,356.9,521.9,357.4Z" transform="translate(-389.003 -328.137)"/>
      <path id="Shape_66_" class="cls-18" d="M494.5,373.2s-2.2,12.7-1.7,18.1c.7,7.7,6.4,12,10.7,11.2s4.3-1.1,3.7-5.3,1.3-5.9,2.1-7.5-.8-1.9-5.3-5.3c-4.5-3.5-5.9-12-7.2-12.3S494.5,373.2,494.5,373.2Z" transform="translate(-389.003 -328.137)"/>
    </g>
    <g id="Man_3_Group" transform="translate(74.707 162.53)">
      <g id="Chair_group" transform="translate(65.893 85.57)">
        <g id="Group_3_" transform="translate(5.1 102.4)">
          <path id="Shape_14_" class="cls-11" d="M266.8,358.6H148.6a3.042,3.042,0,0,1-2.9-3.2v-1.7a3.106,3.106,0,0,1,2.9-3.2H266.8a3.042,3.042,0,0,1,2.9,3.2v1.7A3.042,3.042,0,0,1,266.8,358.6Z" transform="translate(-145.7 -350.5)"/>
        </g>
        <g id="Group_2_" transform="translate(0 108.1)">
          <g id="Group_5_">
            <path id="Shape_12_" class="cls-11" d="M147.5,467.7l22.9-109.6-11.6-1.9L140.6,467.3Z" transform="translate(-140.6 -356.2)"/>
          </g>
          <g id="Group_4_" transform="translate(100.5)">
            <path id="Shape_13_" class="cls-11" d="M264,467.7,241.1,358.1l11.6-1.9,18.2,111.1Z" transform="translate(-241.1 -356.2)"/>
          </g>
        </g>
        <path id="Shape_11_" class="cls-11" d="M248.7,356.1H161.9a8.438,8.438,0,0,1-8.4-7.4l-10.9-91.2a8.408,8.408,0,0,1,8.4-9.4H259.4a8.521,8.521,0,0,1,8.4,9.4l-10.7,91.2A8.438,8.438,0,0,1,248.7,356.1Z" transform="translate(-140.6 -248.1)"/>
      </g>
      <path id="Shape_67_" class="cls-17" d="M221.5,465.6s-8.3,18-9,21.3-8.3,19.3-8,22.7c.3,3.3-7,4.7-6.3-7a92.255,92.255,0,0,1,3-19.3l6.3-23.3Z" transform="translate(-74.707 -162.53)"/>
      <path id="Shape_68_" class="cls-17" d="M147.4,472.2s-10,12.7-11.3,16-5.7,12.3-5.7,12.3-8.3,3-9-.7,2-12,6.7-19.7,9.7-16,9.7-16Z" transform="translate(-74.707 -162.53)"/>
      <path id="Shape_69_" class="cls-3" d="M248.8,322.2c2,1.3,22,27.3,8,67.3s-25.2,64.6-31.9,77c-3.4,6.3-6.1,11-6.1,11l-16-6s26-91.3,24.7-103.3-22.7-20.7-22-30C206.1,328.9,248.8,322.2,248.8,322.2Z" transform="translate(-74.707 -162.53)"/>
      <path id="Shape_71_" class="cls-3" d="M212.8,329.6s1.7,49-10.2,69.5c-6.7,11.7-53.2,76.5-53.2,76.5s-10-4.7-12.7-8,37.2-74.2,37.2-86.2-9.8-53.2-2.5-55.2C178.8,324.2,206.8,327.6,212.8,329.6Z" transform="translate(-74.707 -162.53)"/>
      <g id="Table" transform="translate(2.193 150.27)">
        <path id="Shape_73_" class="cls-11" d="M106.4,474.9h4l21.8-155.5H118.7Z" transform="translate(-76.9 -312.8)"/>
        <path id="Shape_74_" class="cls-11" d="M288.4,480.4h-4L262.5,324.9H276Z" transform="translate(-76.9 -312.8)"/>
        <path id="Shape_75_" class="cls-19" d="M313.5,331.5H76.9l18.8-18.7,214.9.1Z" transform="translate(-76.9 -312.8)"/>
        <g id="Group_11_" transform="translate(0.2 18.6)">
          <path id="Shape_78_" class="cls-11" d="M302.7,511h-4L276.9,343.4h13.5Z" transform="translate(-77.1 -331.4)"/>
          <path id="Shape_77_" class="cls-11" d="M90,506.7h4l21.9-167.6H102.4Z" transform="translate(-77.1 -331.4)"/>
          <rect id="Shape_76_" class="cls-11" width="236.4" height="12"/>
        </g>
      </g>
      <path id="Shape_79_" class="cls-20" d="M271,324.3H164.9a2.131,2.131,0,0,1-2-1.5l-2.1-6.5a2.078,2.078,0,0,1,2-2.7H272.2a2.162,2.162,0,0,1,2.1,2.5l-1.2,6.5A2.14,2.14,0,0,1,271,324.3Z" transform="translate(-74.707 -162.53)"/>
      <path id="Shape_80_" class="cls-3" d="M140.5,481.4s-7,16.6-9,22.9-7.9,14-10.7,13.5-2.1-12.3-1.7-17.3c.8-9,11.6-24.7,12.3-26.2s-2.6,10.5.6,12.4C135.9,488.8,140.5,481.4,140.5,481.4Z" transform="translate(-74.707 -162.53)"/>
      <path id="Shape_81_" class="cls-3" d="M203.3,492.8a32.761,32.761,0,0,0,5.2,4.4s-1.4,12.8-1.5,20.5c0,7.5,0,10.8-2.5,11.1-3,.4-7.1-10.9-6.4-17s-4.1-17.9-2.6-20.9c1.2-2.4,6.9-12.3,6.9-12.3S200.4,489.8,203.3,492.8Z" transform="translate(-74.707 -162.53)"/>
      <path id="Shape_82_" class="cls-3" d="M195.8,220.2s-20.5,2-45.5,15-45.4.5-64,23c-22.4,27.1-11.4,55.5,24.9,57.5,32.4,1.8,66-8.2,81.3-14.3,18-7.2,26.3-15.7,53.3-14.2s-9,15.3,32.4,27.5c44,13,71.9,6.3,80.9-17.2s-1.4-53.3-36.7-54c-34.5-.7-27.2-16.8-57.7-25.8S195.8,220.2,195.8,220.2Z" transform="translate(-74.707 -162.53)"/>
      <path id="Shape_87_" class="cls-17" d="M278.2,291.4s-18.3,4.7-21.3,7-20.7,11-22.3,12c-1.7,1-1,4.7,8.7,2.7s17-8.7,19-9,20.3-4.7,20.3-4.7Z" transform="translate(-74.707 -162.53)"/>
      <path id="Shape_83_" class="cls-17" d="M152.3,306.8c-4.5-1.5,3.3-11.1,4.2-11.2,3.5-.3,17.7-2,22.7-.2,6.5,2.2,10.8,11.3,18.9,20.5,4.7,5.3,5.2,8.1-1.3,5.9s-17.4-8.5-20.8-13.2c-1.3-1.8-3-5.3-7.1-5.3a24.353,24.353,0,0,0-7.1,1.3C159.6,305.4,152.3,306.8,152.3,306.8Z" transform="translate(-74.707 -162.53)"/>
      <path id="Shape_84_" class="cls-17" d="M203.2,189.6s-1,9.5,1,17,4.5,17.5,13.5,18,13-16.5,13.5-26-3.5-30.2-15.2-26.2-12.2,12.5-12.5,16.2S203.2,189.6,203.2,189.6Z" transform="translate(-74.707 -162.53)"/>
      <g id="Group_12_" transform="translate(128.537)">
        <path id="Shape_86_" class="cls-18" d="M232.7,174.1c.3-4.7,2.5-6.5-.3-10.5-2.1-3-5.2,1-9.9,3.5a4.908,4.908,0,0,0-.9-3.6c-1.9-2.4-3,3.1-8.2,4.1-3.5.7-6.2,3.2-7.7,4.9-.3.3-.6.5-.9.8-2,1.8-1.5,18.3-1.5,18.3s.5-9.3,4.3-10.5c2.7-.8,3.5,3,8.2,3.3,4.8.3,6-4.2,9.7-4.5,4-.3,5.3,9.1,5.5,11.2C230.9,188.9,232.4,178.5,232.7,174.1Z" transform="translate(-203.244 -162.53)"/>
        <path id="Shape_85_" class="cls-18" d="M230.8,191.1v.3C230.9,191.6,230.9,191.4,230.8,191.1Z" transform="translate(-203.244 -162.53)"/>
      </g>
      <path id="Shape_88_" class="cls-21" d="M267.7,324.2H167.1a5.421,5.421,0,0,1-5.4-5.3l-1.1-58.6a5.4,5.4,0,0,1,5.4-5.5H269.9a5.363,5.363,0,0,1,5.4,5.6L273,319A5.248,5.248,0,0,1,267.7,324.2Z" transform="translate(-74.707 -162.53)"/>
    </g>
    <g id="Man_1_Group" transform="translate(236.369 440.9)">
      <g id="Group_8_" transform="translate(83.38 219.1)">
        <path id="Shape_24_" class="cls-11" d="M270.2,791.7l19.7-129.5-10-2.2L264.3,791.3Z" transform="translate(-264.3 -660)"/>
      </g>
      <g id="Group_9_" transform="translate(0 4.95)">
        <path id="Shape_27_" class="cls-17" d="M318.2,451.6s-12.4,17.2-6.9,28.2,7.9,18.8,1.7,27.7,18.9,5.3,18.9,5.3-4.8-9.6,3.4-17.2c8.3-7.6,16-21.9,14.4-31.7C347.4,448.5,329.9,439.2,318.2,451.6Z" transform="translate(-180.92 -445.851)"/>
        <path id="Shape_26_" class="cls-22" d="M255.9,515.3s24.8-9.3,46.4-6.2c21.7,3.1,42.3,5.2,57.8,13.4s34.1,24.8,51.6,33c17.5,8.3,44.4,34.1,21.7,47.5s-50.6-5.2-69.2-7.2-98.8-7.9-136.1,1.6c-48.9,12.4-52.1-11.7-43.4-31.1C195.5,542,235.3,527.7,255.9,515.3Z" transform="translate(-180.92 -445.851)"/>
        <path id="Shape_25_" class="cls-23" d="M370.5,589.6s-11.4,37.2-21.7,52.6-59.9,14.4-71.2,4.1c-11.4-10.3-46.4-76.4-29.9-81.5,16.5-5.2,122.8,20.6,122.8,20.6Z" transform="translate(-180.92 -445.851)"/>
      </g>
      <path id="Hair" class="cls-18" d="M315.1,454.7c-1.6,4.9-6.8,11.8-5.4,20,1.4,8.3,1.9,17.1,7.4,18.1s7,2.6,10.1,1.6,5.5-4.6,7.2-7.7,8.1-16.9,9.5-14.1-5.2,8.8-2.3,8.3c3.2-.5,11.2-8.7,14.3-15.6S373.2,453.1,367,450s-8.3-.2-12.6-1.9c-2.8-1.1,7.4-4.5.1-6.1-6.4-1.4-22-2.2-27.8,2.3C321,448.9,317,448.8,315.1,454.7Z" transform="translate(-180.92 -440.9)"/>
      <path id="Shape_28_" class="cls-3" d="M334.9,654.7s15.8,11,30.3-2.1c14.4-13.1,28-24.2,13.1-31.7-11.9-5.9-25.8-6.3-46.5,4.1S334.9,654.7,334.9,654.7Z" transform="translate(-180.92 -440.9)"/>
      <path id="Shape_29_" class="cls-3" d="M386.5,656.2c-1.1,21,11.9,82.1,11.9,82.1l-18.6,4.1s-22.9-43.2-28.4-66.6,5-35.6,15.3-41.8,12.2-17.6,17.3-6.5C387,634.1,387.2,643.1,386.5,656.2Z" transform="translate(-180.92 -440.9)"/>
      <path id="Shape_31_" class="cls-3" d="M343.9,662.9c.7,3.4-31.3,60.8-39.2,72.9-8.3,12.7-8.7,16.7-8.7,16.7l-17-18.2s6.1-5.2,10.6-28.1c8.3-42,30.3-57.8,30.3-57.8Z" transform="translate(-180.92 -440.9)"/>
      <rect id="Shape_33_" class="cls-11" width="288" height="12.4" transform="translate(1.68 158.5)"/>
      <path id="Shape_34_" class="cls-17" d="M282.3,738.2c-1,1.5-11.2,13.3-16.3,13.8-5.2.5,3.4,2.7,9.1,9.4s4.6,9.3,8.3,12.9c3.6,3.6,6.7,3.1,6.7,3.1s-3.6-12.9-2.1-17a103.933,103.933,0,0,1,5.2-10.8Z" transform="translate(-180.92 -440.9)"/>
      <path id="Shape_35_" class="cls-17" d="M382.2,741.9c2.7,10.3,5.4,25.7,5.4,25.7s6.4-.2,12.5-.5c9.1-.4,5-8.7,4.1-10.3-.7-1.1-5.3-11-8-18C395.7,737.9,382,741.5,382.2,741.9Z" transform="translate(-180.92 -440.9)"/>
      <path id="Shape_36_" class="cls-3" d="M403.1,766.2a47.794,47.794,0,0,0-10.9-.6c-5.3.6-5.7-3.3-6.2,3.1-.9,10.3,5.2,16,6.2,18.6s3.6,3.1,8.8,1,7.2-9.8,11.4-16c4.1-6.2,15.5-23.7,9.8-27.4-6.3-4-9-3.1-15.3,7.1-1.9,3.1-3.6,3.6-3.1,4.5C406.8,761.6,403.1,766.2,403.1,766.2Z" transform="translate(-180.92 -440.9)"/>
      <path id="Shape_37_" class="cls-3" d="M264.2,752.2s-12.4.6-13.4,6.3,2.7-5.7,8.4.1c5,4.9,5.3,5.8,10.5,18.2s19.8,25.5,28.1,23.9c8.3-1.5,1.8-5.8-1-8.9-5.1-5.8-6.8-14.3-6.8-14.3s-10.3-13.2-15.5-19.4C269.4,751.8,264.2,752.2,264.2,752.2Z" transform="translate(-180.92 -440.9)"/>
      <path id="Shape_38_" class="cls-18" d="M254.1,767.8s-4.1-5.1-3.8-8.4c.3-2.8,3.8-6.7,10.7.2s7.9,22,18.9,29.6,7.4,9.5,13.8,10.6,8.9-6.2,9.6.7c.3,3.4-22.7,3.8-29.8-2.8-4.3-4-10.8-20.9-13.5-23.6C257.2,771.2,254.1,767.8,254.1,767.8Z" transform="translate(-180.92 -440.9)"/>
      <path id="Shape_39_" class="cls-18" d="M423.4,746a112.025,112.025,0,0,1-10.8,23.9c-5.6,8.8-7.7,17.8-13.9,18.1s-7.1-2.6-7.1-1.3c-.1,1.9.7,3,3.3,4.5s5.5,5,12.2-1.2,10.7-19.8,14-28.6,3.4-11.9,3.6-12.6C424.9,748,423.4,746,423.4,746Z" transform="translate(-180.92 -440.9)"/>
      <path id="Shape_42_" class="cls-11" d="M447.8,780.8l-4.1.3-34-170.3,13.9-1Z" transform="translate(-180.92 -440.9)"/>
      <path id="Shape_40_" class="cls-11" d="M195.9,778.5l4.1.3,35.4-170-13.9-1Z" transform="translate(-180.92 -440.9)"/>
      <path id="Shape_41_" class="cls-11" d="M336.4,667.7l-59.7-1c-9.6-.2-17.6-7.9-19-18.3l-10.3-78.2c-1.7-12.8,7.4-24.3,19.3-24.3h79.8c11.8,0,20.9,11.4,19.3,24.2L356,649.3C354.6,659.9,346.2,667.8,336.4,667.7Z" transform="translate(-180.92 -440.9)"/>
      <path id="Shape_43_" class="cls-11" d="M258.3,800.6,278,671.1l-10-2.3L252.4,800.1Z" transform="translate(-180.92 -440.9)"/>
      <path id="Shape_44_" class="cls-11" d="M353,800.6,333.3,671.1l10-2.3,15.6,131.3Z" transform="translate(-180.92 -440.9)"/>
      <path id="Shape_45_" class="cls-11" d="M368.2,791.3,354.1,673.1a5.2,5.2,0,0,1-3.8,1.5h-5.9l17.8,117.1Z" transform="translate(-180.92 -440.9)"/>
      <path id="Shape_46_" class="cls-11" d="M355.9,664.6a5.376,5.376,0,0,0-2.8-.8H265.2a5.4,5.4,0,1,0,0,10.8h87.9a5.9,5.9,0,0,0,3.9-1.5,5.381,5.381,0,0,0,1.7-3.8A5.878,5.878,0,0,0,355.9,664.6Z" transform="translate(-180.92 -440.9)"/>
    </g>
  </g>
</svg>
